<?xml version="1.0" encoding="UTF-8"?>
<svg version="1.1" xmlns="http://www.w3.org/2000/svg" width="512" height="512">
<path d="M0 0 C0.66775756 -0.00350607 1.33551511 -0.00701215 2.02350774 -0.01062447 C4.25908573 -0.01992178 6.49440226 -0.01501955 8.72999096 -0.01015663 C10.34980376 -0.01389373 11.96961475 -0.01849549 13.58942288 -0.02388728 C18.03933046 -0.03612523 22.48916289 -0.03585587 26.93908346 -0.03349853 C31.73879778 -0.03309056 36.53848795 -0.04412753 41.33819103 -0.05361366 C50.74118745 -0.07022886 60.14415879 -0.07572344 69.54716865 -0.07683842 C77.18997328 -0.07778862 84.83276962 -0.08189752 92.47557163 -0.08823967 C114.14218464 -0.10585328 135.80877783 -0.11507832 157.47539804 -0.11357872 C159.22759654 -0.11345885 159.22759654 -0.11345885 161.01519299 -0.11333656 C162.18475079 -0.1132548 163.35430859 -0.11317304 164.55930754 -0.1130888 C183.51596897 -0.11227581 202.47255097 -0.1314166 221.42918942 -0.1596133 C240.89163208 -0.18833403 260.35403598 -0.20215405 279.81650037 -0.20042574 C290.74405089 -0.19976158 301.67151813 -0.20526567 312.59904957 -0.22678185 C321.90257701 -0.24498292 331.2059834 -0.24934976 340.50952093 -0.235763 C345.25596189 -0.22922803 350.00217057 -0.22913528 354.74858952 -0.2464695 C359.09560684 -0.26218176 363.44220735 -0.25935552 367.78921439 -0.24190123 C369.35984613 -0.23882727 370.93050882 -0.24247867 372.50110403 -0.25362138 C380.78082003 -0.30846135 387.8838329 -0.13203422 395.14922619 4.25726891 C395.94715588 4.71488609 396.74508556 5.17250328 397.56719494 5.64398766 C405.74465209 11.65523099 410.2356754 19.34331327 412.14922619 29.25726891 C412.71128239 35.79324886 412.52889781 42.38220317 412.48980236 48.93549156 C412.48895519 50.92708892 412.48943299 52.91868722 412.49112988 54.91028404 C412.49198773 60.29390064 412.47439598 65.67731516 412.453408 71.06088495 C412.43460614 76.69562082 412.432888 82.33036173 412.42933178 87.96512413 C412.42002162 98.62504175 412.39542175 109.28486665 412.36528331 119.94474351 C412.33170726 132.08499739 412.31524523 144.22525578 412.30019701 156.36554456 C412.2688713 181.32950575 412.21552382 206.29337821 412.14922619 231.25726891 C406.20922619 231.25726891 400.26922619 231.25726891 394.14922619 231.25726891 C394.14042683 227.54095459 394.14042683 227.54095459 394.1314497 223.74956322 C394.07481064 200.42658521 394.00174523 177.1037001 393.91351128 153.78081989 C393.86854271 141.78966144 393.82913044 129.79853277 393.80279064 117.80731773 C393.77981922 107.35597105 393.74643066 96.90471849 393.70052463 86.45344645 C393.67658099 80.91940606 393.65785964 75.38545896 393.65161228 69.85136795 C393.64556667 64.64177291 393.62558546 59.43241661 393.59495068 54.22290993 C393.58616211 52.31176155 393.58244956 50.40058198 393.58421803 48.48941422 C393.58587184 45.8772873 393.56916241 43.26588722 393.54795361 40.65386009 C393.55280118 39.89995127 393.55764876 39.14604245 393.56264323 38.36928791 C393.47526825 31.83563742 391.96257164 27.34261618 387.64922619 22.38226891 C384.37998142 19.60341085 381.99909058 19.13342629 377.84893322 19.09613609 C376.98438519 19.08652855 376.11983715 19.07692101 375.22909069 19.06702232 C373.83217495 19.06064751 373.83217495 19.06064751 372.40703869 19.05414391 C371.44651592 19.04844383 370.48599316 19.04274376 369.49636364 19.03687096 C367.46383293 19.02742433 365.43128692 19.02088831 363.39873791 19.01703453 C360.29315962 19.00732808 357.18824293 18.97630104 354.08281994 18.94476891 C352.10756345 18.93823873 350.13230223 18.93298832 348.15703869 18.92914391 C347.22980999 18.9167971 346.30258129 18.9044503 345.34725475 18.89172935 C340.36269923 18.90890694 337.28981261 19.19353829 333.14922619 22.25726891 C332.48922619 22.25726891 331.82922619 22.25726891 331.14922619 22.25726891 C326.63221542 30.00071593 326.81201245 38.51036021 326.83672619 47.19476891 C326.82061291 48.32334312 326.80449963 49.45191734 326.78789806 50.61469078 C326.74600995 61.47877749 326.74600995 61.47877749 331.60137463 70.87421227 C336.34048599 74.94441631 339.54541215 75.59880626 345.60625744 75.54633141 C349.27060469 75.12980038 351.38086042 73.62050798 354.14922619 71.25726891 C354.72672619 70.82414391 355.30422619 70.39101891 355.89922619 69.94476891 C359.5474522 65.01966379 359.60448597 58.15862128 360.14922619 52.25726891 C354.53922619 52.25726891 348.92922619 52.25726891 343.14922619 52.25726891 C343.14922619 46.31726891 343.14922619 40.37726891 343.14922619 34.25726891 C347.34954586 34.1652911 351.54635692 34.08571351 355.74688244 34.03754234 C357.1747374 34.01745908 358.60251043 33.99018638 360.03008556 33.95551109 C362.08562987 33.90684222 364.14008474 33.88426923 366.19610119 33.86664391 C368.0499342 33.83522301 368.0499342 33.83522301 369.94121838 33.80316734 C373.74850745 34.34209867 374.8668297 35.22457052 377.14922619 38.25726891 C380.625756 48.68685833 379.43687487 64.28023692 375.60625744 74.52680016 C370.95654153 83.24034285 363.60349051 89.81418885 354.39320886 93.30048168 C351.14356153 94.25893965 348.60029573 94.50591122 345.22597218 94.50336456 C344.05753855 94.50734666 342.88910493 94.51132876 341.68526423 94.51543152 C340.41094644 94.50960584 339.13662866 94.50378016 337.82369518 94.49777794 C336.44908232 94.49865046 335.07446979 94.5004023 333.69985902 94.50295627 C329.92804989 94.50742467 326.15635451 94.4994331 322.38455987 94.48940015 C318.31509772 94.48076065 314.24564195 94.48368616 310.17617321 94.4852047 C303.12736651 94.48625323 296.07859685 94.47997992 289.02979946 94.46872902 C278.8384355 94.45247272 268.64708944 94.44726588 258.45571391 94.44475304 C241.92076124 94.44037614 225.3858283 94.42706717 208.85088634 94.40814781 C192.78903837 94.38978888 176.72719579 94.37565537 160.66533947 94.36713219 C159.66513645 94.36659619 158.66493343 94.3660602 157.63442123 94.36550796 C149.81213897 94.3613491 141.98985659 94.35743526 134.16757417 94.35359883 C95.82810673 94.33473258 57.48868869 94.2944957 19.14922619 94.25726891 C19.14922619 189.95726891 19.14922619 285.65726891 19.14922619 384.25726891 C54.12922619 384.25726891 89.10922619 384.25726891 125.14922619 384.25726891 C161.14922619 402.25726891 161.14922619 402.25726891 164.14922619 406.25726891 C164.94652349 411.83834999 164.94652349 411.83834999 164.14922619 414.25726891 C137.24905405 438.21378421 107.44128539 438.52719408 73.14062023 437.42456627 C67.03255387 437.24756419 60.92320469 437.17237575 54.81328869 437.08734703 C42.92147188 436.90747792 31.03717958 436.60972902 19.14922619 436.25726891 C19.14922619 444.17726891 19.14922619 452.09726891 19.14922619 460.25726891 C75.57922619 460.25726891 132.00922619 460.25726891 190.14922619 460.25726891 C190.14922619 466.19726891 190.14922619 472.13726891 190.14922619 478.25726891 C166.22772143 478.34980168 142.30625967 478.42121495 118.38461208 478.46451759 C107.27776789 478.48515675 96.17103684 478.51330325 85.06426525 478.55902672 C75.38539072 478.598853 65.70659811 478.62469186 56.02764392 478.63362288 C50.90105822 478.63884476 45.77470691 478.6511462 40.64819622 478.68018913 C35.82521747 478.70729171 31.00257018 478.71572435 26.17952251 478.70969963 C24.40737133 478.71080218 22.63520933 478.71878674 20.86312389 478.73409081 C18.4468712 478.75393852 16.03187649 478.7492279 13.61559582 478.73828697 C12.9113127 478.74993834 12.20702958 478.7615897 11.48140454 478.77359414 C8.10259746 478.73212534 6.42914417 478.47907785 3.74507809 476.35220528 C0.7185985 472.37922873 1.01953987 469.00971546 1.05156994 464.18695641 C1.05298489 463.39072868 1.05439983 462.59450096 1.05585766 461.77414513 C1.06146274 459.22681511 1.07401605 456.67957244 1.08672619 454.13226891 C1.09174054 452.40700976 1.09630356 450.68174923 1.10039806 448.95648766 C1.11143382 444.72338099 1.12870183 440.49033977 1.14922619 436.25726891 C0.33735851 436.26887047 -0.47450916 436.28047203 -1.31097889 436.29242516 C-2.38243153 436.30144859 -3.45388416 436.31047203 -4.55780506 436.31976891 C-6.14685658 436.33717125 -6.14685658 436.33717125 -7.76801014 436.35492516 C-15.72717637 436.10279349 -21.19801798 433.01462938 -26.89764881 427.55414391 C-32.02251432 421.52730206 -33.55689831 414.72704973 -33.23749256 406.92914391 C-32.2353607 400.00532375 -28.8825676 394.07028905 -23.85077381 389.25726891 C-15.57216144 383.19270403 -9.79077594 384.25726891 1.14922619 384.25726891 C1.14922619 288.55726891 1.14922619 192.85726891 1.14922619 94.25726891 C-1.16077381 94.25726891 -3.47077381 94.25726891 -5.85077381 94.25726891 C-15.64573342 91.7457408 -22.92490586 86.27373843 -28.52655506 77.99164391 C-33.0880805 68.57256483 -33.35078729 59.57646248 -33.29681873 49.29901695 C-33.28830175 46.82787413 -33.31715801 44.35904444 -33.34882069 41.88812828 C-33.39993445 30.40586811 -32.18422565 20.35703437 -24.68671131 11.10883141 C-17.61639286 3.97834003 -10.10107906 0.01199216 0 0 Z M-12.22577381 25.31976891 C-15.65778423 31.52378773 -15.10862947 37.82120666 -15.14593983 44.71600914 C-15.15742695 46.19299487 -15.17782709 47.66994016 -15.20746326 49.1466732 C-15.50471454 60.78433302 -15.50471454 60.78433302 -10.85077381 71.25726891 C-6.57266626 75.32668828 -3.37050379 76.38262438 2.43784142 76.38031673 C3.54108417 76.38230778 4.64432692 76.38429883 5.78100127 76.38635021 C7.60636655 76.38198095 7.60636655 76.38198095 9.4686079 76.37752342 C11.4019313 76.37880506 11.4019313 76.37880506 13.37431175 76.38011259 C16.95904061 76.38235434 20.54373974 76.37834061 24.12846482 76.37333453 C27.99143387 76.36902565 31.85440117 76.37047676 35.71737194 76.3712368 C42.41262937 76.37176176 49.10787707 76.3686179 55.80313206 76.36299896 C65.48340793 76.35488015 75.16367909 76.35226835 84.843958 76.35101097 C100.54866269 76.34882105 116.2533622 76.34216259 131.95806408 76.33270836 C147.21587631 76.32353269 162.47368714 76.31645261 177.73150158 76.31220055 C179.14167473 76.31180646 179.14167473 76.31180646 180.58033624 76.31140441 C185.29650677 76.3100994 190.01267731 76.30883569 194.72884786 76.30759251 C233.8689776 76.29722177 273.00910155 76.27960509 312.14922619 76.25726891 C311.83070438 74.75840141 311.83070438 74.75840141 311.5057478 73.22925377 C311.22752641 71.88871586 310.94960353 70.54811598 310.67193127 69.20746422 C310.53188923 68.55238884 310.39184719 67.89731346 310.24756145 67.22238731 C308.86409153 60.48402304 308.74133796 53.8752214 308.83672619 47.00726891 C308.8318922 45.24383141 308.8318922 45.24383141 308.82696056 43.44476891 C308.88011388 34.74695302 310.02994067 26.67295234 312.14922619 18.25726891 C272.13926362 18.16572965 232.1293147 18.09523845 192.11926835 18.05300759 C187.39658811 18.04800471 182.67390808 18.04282743 177.95122814 18.03754234 C177.01102066 18.0364931 176.07081318 18.03544386 175.10211457 18.03436282 C159.8749084 18.01695374 144.64776259 17.98541328 129.42059224 17.94865772 C113.79814077 17.91126231 98.17572092 17.88903601 82.55322653 17.88091493 C72.91193585 17.87542425 63.27081576 17.85807738 53.62957758 17.82560304 C47.01978327 17.80447243 40.41007725 17.79806556 33.8002516 17.8032634 C29.98569043 17.80582745 26.17142753 17.8018746 22.35691929 17.78044701 C18.2209594 17.75738337 14.08563547 17.76531248 9.94962597 17.77625084 C8.74436715 17.76459947 7.53910832 17.75294811 6.29732651 17.74094367 C-1.84907167 17.79933018 -6.99802506 18.57872446 -12.22577381 25.31976891 Z M-13.85077381 405.25726891 C-15.02241051 408.62487077 -15.02241051 408.62487077 -14.85077381 412.25726891 C-12.76452042 415.6846852 -11.67634271 416.98207927 -7.85077381 418.25726891 C-6.42927757 418.34570959 -5.00397571 418.37925819 -3.57973194 418.37752342 C-2.70895008 418.37889809 -1.83816822 418.38027275 -0.94099903 418.38168907 C0.01134121 418.3780938 0.96368145 418.37449852 1.94488049 418.3707943 C2.94993633 418.37094032 3.95499218 418.37108635 4.99050426 418.3712368 C8.31817298 418.37053919 11.64578598 418.36275384 14.97344494 418.35492516 C17.27844239 418.35306044 19.58344024 418.35163679 21.88843822 418.35063744 C27.95967227 418.3468165 34.03088244 418.33698979 40.10210705 418.32593346 C46.29554452 418.31571026 52.48898584 418.31113786 58.68242931 418.30609703 C70.83803877 418.29536718 82.99363049 418.2782958 95.14922619 418.25726891 C95.14922619 412.97726891 95.14922619 407.69726891 95.14922619 402.25726891 C81.52804206 402.18781806 67.90689991 402.13448255 54.28557491 402.10183239 C47.96092769 402.08616351 41.63640144 402.06490267 35.31182384 402.03095055 C29.21048573 401.99840108 23.10926411 401.98042511 17.00784588 401.97263718 C14.6777847 401.96708576 12.34773003 401.95624547 10.01771832 401.94007874 C6.75900425 401.91836349 3.50077417 401.91529955 0.24199963 401.91669273 C-0.72544682 401.90590691 -1.69289326 401.89512108 -2.68965626 401.88400841 C-4.02313351 401.8901944 -4.02313351 401.8901944 -5.38354969 401.89650536 C-6.15416862 401.89373998 -6.92478756 401.8909746 -7.71875858 401.88812542 C-10.47440547 402.36524635 -11.83126079 403.34523614 -13.85077381 405.25726891 Z M113.14922619 402.25726891 C113.14922619 407.53726891 113.14922619 412.81726891 113.14922619 418.25726891 C118.66690725 418.43550588 118.66690725 418.43550588 123.01641369 416.50726891 C124.0025465 415.96586266 124.0025465 415.96586266 125.00860119 415.41351891 C125.67375744 415.03195641 126.33891369 414.65039391 127.02422619 414.25726891 C128.05676525 413.68492516 128.05676525 413.68492516 129.11016369 413.10101891 C130.79615364 412.16435782 132.47359433 411.21233643 134.14922619 410.25726891 C131.33588307 408.0518666 128.50263866 406.23000332 125.33672619 404.56976891 C124.52590588 404.13277672 123.71508556 403.69578453 122.87969494 403.24555016 C119.53617574 401.86020726 119.53617574 401.86020726 113.14922619 402.25726891 Z " fill="#000000" transform="translate(41.85077381134033,-0.25726890563964844)"/>
<path d="M0 0 C0.80448578 -0.00960754 1.60897156 -0.01921509 2.43783569 -0.02911377 C3.30349152 -0.03336365 4.16914734 -0.03761353 5.06103516 -0.04199219 C5.95496979 -0.04769226 6.84890442 -0.05339233 7.76992798 -0.05926514 C9.66122251 -0.06870975 11.55253347 -0.07524698 13.44384766 -0.07910156 C16.33216141 -0.08880692 19.2197634 -0.11983505 22.10791016 -0.15136719 C23.9464476 -0.15789755 25.78499013 -0.16314789 27.62353516 -0.16699219 C28.48514252 -0.17933899 29.34674988 -0.19168579 30.23446655 -0.20440674 C36.21351729 -0.18227558 39.63686821 0.82290337 43.97509766 5.16113281 C44.40036921 7.16011015 44.73922987 9.17780596 45.03369141 11.20019531 C46.76569039 24.23878569 46.76569039 24.23878569 53.08203125 35.27978516 C58.65971653 38.87328676 65.7369154 41.65814422 72.45043945 40.87084961 C75.23395972 40.08836306 77.30683787 38.98655498 79.76806641 37.47363281 C80.64527344 36.93996094 81.52248047 36.40628906 82.42626953 35.85644531 C83.32925781 35.29699219 84.23224609 34.73753906 85.16259766 34.16113281 C86.96834057 33.0565628 88.77431853 31.9523769 90.58056641 30.84863281 C91.37615967 30.3575 92.17175293 29.86636719 92.99145508 29.36035156 C96.61899856 27.1673062 98.67729939 26.52442196 102.97509766 27.16113281 C109.76923254 31.92871886 115.50071536 38.53234873 121.3503418 44.40600586 C122.93049409 45.99159078 124.51601741 47.57166724 126.10205078 49.15136719 C127.11083571 50.16081174 128.11931104 51.1705658 129.12744141 52.18066406 C130.03486084 53.08921143 130.94228027 53.99775879 131.87719727 54.93383789 C134.83479786 58.0738577 135.50965062 60.36586218 135.45654297 64.72265625 C134.20297818 71.07184747 129.34230063 76.58295553 125.77587891 81.84863281 C125.13779297 82.83089844 124.49970703 83.81316406 123.84228516 84.82519531 C123.24528809 85.70643066 122.64829102 86.58766602 122.03320312 87.49560547 C120.66672245 90.19571914 120.66672245 90.19571914 121.7175293 93.30053711 C122.13252686 94.24453369 122.54752441 95.18853027 122.97509766 96.16113281 C123.38888672 97.1859375 123.80267578 98.21074219 124.22900391 99.26660156 C124.66083984 100.28367187 125.09267578 101.30074219 125.53759766 102.34863281 C126.77847327 105.27592099 127.96954678 108.14448019 128.97509766 111.16113281 C131.58572925 112.17558362 131.58572925 112.17558362 134.80322266 112.84472656 C135.99560547 113.13283203 137.18798828 113.4209375 138.41650391 113.71777344 C140.93987721 114.30138439 143.46331394 114.88472121 145.98681641 115.46777344 C147.18435547 115.75716797 148.38189453 116.0465625 149.61572266 116.34472656 C150.71432617 116.59794678 151.81292969 116.85116699 152.94482422 117.11206055 C156.89225527 118.47865024 160.06602548 120.34298847 161.97509766 124.16113281 C162.08426924 125.55369586 162.13405867 126.95118109 162.15209961 128.34790039 C162.16493484 129.21252396 162.17777008 130.07714752 162.19099426 130.9679718 C162.20207466 132.37262947 162.20207466 132.37262947 162.21337891 133.80566406 C162.22145065 134.76760178 162.2295224 135.72953949 162.23783875 136.72062683 C162.25168376 138.75912674 162.26240404 140.79764987 162.27026367 142.83618164 C162.28747154 145.95080618 162.33135342 149.06436799 162.37548828 152.17871094 C162.38561557 154.15852083 162.39413156 156.13833976 162.40087891 158.11816406 C162.41838699 159.04852982 162.43589508 159.97889557 162.45393372 160.93745422 C162.43994556 165.11673411 162.34428257 167.53166544 160.19482422 171.1965332 C158.03792798 173.10552397 156.78920928 173.95542761 154.03369141 174.63769531 C153.29022461 174.83089355 152.54675781 175.0240918 151.78076172 175.22314453 C150.60852051 175.50182373 150.60852051 175.50182373 149.41259766 175.78613281 C148.60918945 176.00156738 147.80578125 176.21700195 146.97802734 176.43896484 C143.49653282 177.36218384 140.13214163 178.14031327 136.55712891 178.61425781 C133.49088012 179.07102315 131.56701819 179.44083157 128.97509766 181.16113281 C126.17544429 185.97108495 124.55946287 190.84495268 122.97509766 196.16113281 C122.56283936 197.11866455 122.15058105 198.07619629 121.72583008 199.06274414 C120.66650229 202.13181476 120.66650229 202.13181476 122.03320312 204.82666016 C122.6302002 205.70789551 123.22719727 206.58913086 123.84228516 207.49707031 C124.79941406 208.97046875 124.79941406 208.97046875 125.77587891 210.47363281 C126.46037109 211.48425781 127.14486328 212.49488281 127.85009766 213.53613281 C135.41592322 224.74796574 135.41592322 224.74796574 135.85791016 229.38769531 C134.59723928 234.77622657 131.84076484 237.33532643 127.97509766 241.16113281 C126.64169532 242.57851326 125.30844709 243.99604349 123.97842407 245.41659546 C122.0297702 247.48046761 120.04690876 249.50957278 118.05981445 251.53637695 C117.03958703 252.58343955 116.02659573 253.63759879 115.02075195 254.69848633 C105.56404493 264.66330579 105.56404493 264.66330579 100.75244141 265.61035156 C96.0214287 265.0477182 92.96323683 263.54268675 88.97509766 261.03613281 C88.27666748 260.62250488 87.5782373 260.20887695 86.85864258 259.78271484 C83.26200108 257.63808662 79.76556367 255.36802622 76.28759766 253.03613281 C72.40525131 250.83857828 72.08330703 251.08992149 67.97509766 252.16113281 C67.35449463 252.26377441 66.7338916 252.36641602 66.09448242 252.47216797 C60.43216713 253.4755826 55.09660083 254.98354757 50.97509766 259.16113281 C47.34264893 266.64556694 46.0654947 275.06206268 44.80200195 283.22607422 C43.75393885 286.94612578 42.96772193 288.6570192 39.97509766 291.16113281 C36.46556335 291.89652028 33.01838784 291.83767523 29.44384766 291.79003906 C27.90174622 291.793657 27.90174622 291.793657 26.32849121 291.79734802 C24.15645487 291.7963692 21.9843937 291.78296736 19.8125 291.75805664 C16.4869313 291.72375487 13.16402016 291.73739494 9.83837891 291.75683594 C7.7276905 291.74993741 5.61700897 291.74026497 3.50634766 291.72753906 C2.51147339 291.73249893 1.51659912 291.7374588 0.49157715 291.74256897 C-6.30740139 291.62651459 -6.30740139 291.62651459 -9.56298828 289.51489258 C-11.32080783 286.68470916 -12.14378882 284.17075659 -12.94677734 280.93457031 C-13.24970703 279.73832031 -13.55263672 278.54207031 -13.86474609 277.30957031 C-14.31527344 275.44171875 -14.31527344 275.44171875 -14.77490234 273.53613281 C-15.24863281 271.65667969 -15.24863281 271.65667969 -15.73193359 269.73925781 C-18.02490234 260.54753027 -18.02490234 260.54753027 -18.02490234 258.16113281 C-18.64236328 257.99097656 -19.25982422 257.82082031 -19.89599609 257.64550781 C-25.18746321 256.13135893 -30.02774267 254.36604101 -34.91943359 251.83300781 C-37.68247108 250.95129641 -39.23220203 251.41490728 -42.02490234 252.16113281 C-44.36187262 253.34110222 -44.36187262 253.34110222 -46.64208984 254.84863281 C-47.49673828 255.38230469 -48.35138672 255.91597656 -49.23193359 256.46582031 C-51.0050176 257.59249448 -52.7758722 258.72268513 -54.54443359 259.85644531 C-63.24765357 265.27469053 -63.24765357 265.27469053 -69.02490234 265.16113281 C-73.59906173 262.93325612 -76.85578748 259.60585857 -80.38427734 256.03222656 C-81.26904755 255.14676903 -81.26904755 255.14676903 -82.17169189 254.24342346 C-83.41111097 253.00099529 -84.64811085 251.75614958 -85.8828125 250.5090332 C-87.77728464 248.59622746 -89.67971467 246.69162209 -91.58349609 244.78808594 C-92.78839749 243.57827168 -93.99284084 242.36800103 -95.19677734 241.15722656 C-96.05139557 240.3009391 -96.05139557 240.3009391 -96.92327881 239.42735291 C-100.23098015 236.07940594 -101.84836331 234.44213502 -102.49755859 229.73144531 C-102.42140465 223.59759102 -98.71215474 219.00634236 -95.46240234 214.03613281 C-94.21641652 212.12689915 -92.98526556 210.20788076 -91.77099609 208.27832031 C-91.22113037 207.43897949 -90.67126465 206.59963867 -90.10473633 205.73486328 C-88.72481495 202.44588946 -89.20357975 200.5852665 -90.02490234 197.16113281 C-90.17701172 195.89398438 -90.32912109 194.62683594 -90.48583984 193.32128906 C-91.39240236 188.60693632 -92.51608769 184.58941422 -96.02490234 181.16113281 C-103.52369893 177.59743736 -111.92903289 176.30552219 -120.07397461 175.00390625 C-123.5126118 174.0218449 -125.43132395 172.59263075 -128.02490234 170.16113281 C-129.17204587 167.86684576 -129.16893708 166.52666871 -129.2019043 163.97436523 C-129.22115715 162.67742989 -129.22115715 162.67742989 -129.24079895 161.35429382 C-129.24818588 160.41785538 -129.25557281 159.48141693 -129.26318359 158.51660156 C-129.27125534 157.55466385 -129.27932709 156.59272614 -129.28764343 155.60163879 C-129.30148844 153.56313889 -129.31220873 151.52461576 -129.32006836 149.48608398 C-129.33727623 146.37145945 -129.38115811 143.25789764 -129.42529297 140.14355469 C-129.43542026 138.16374479 -129.44393625 136.18392586 -129.45068359 134.20410156 C-129.46819168 133.27373581 -129.48569977 132.34337006 -129.5037384 131.3848114 C-129.48975025 127.20553151 -129.39408726 124.79060018 -127.24462891 121.12573242 C-125.08773266 119.21674165 -123.83901397 118.36683801 -121.08349609 117.68457031 C-120.3400293 117.49145264 -119.5965625 117.29833496 -118.83056641 117.09936523 C-117.6583252 116.82056519 -117.6583252 116.82056519 -116.46240234 116.53613281 C-115.65899414 116.31997314 -114.85558594 116.10381348 -114.02783203 115.88110352 C-110.54042904 114.95386378 -107.19411424 114.18182501 -103.60693359 113.74316406 C-100.47808388 113.30728293 -98.62991814 112.97311725 -96.02490234 111.16113281 C-93.36437935 106.87177129 -91.9508382 101.98782324 -90.62817383 97.14990234 C-90.02490234 95.16113281 -90.02490234 95.16113281 -88.77563477 92.74365234 C-87.7244634 90.13501441 -87.7244634 90.13501441 -89.08300781 87.625 C-89.68000488 86.74489258 -90.27700195 85.86478516 -90.89208984 84.95800781 C-91.53017578 83.97703125 -92.16826172 82.99605469 -92.82568359 81.98535156 C-94.19880826 79.95023082 -95.5737828 77.91635689 -96.95068359 75.88378906 C-97.91167969 74.40458984 -97.91167969 74.40458984 -98.89208984 72.89550781 C-99.49134277 72.01088867 -100.0905957 71.12626953 -100.70800781 70.21484375 C-102.50299133 66.05250526 -103.02612374 62.61582596 -102.02490234 58.16113281 C-100.27314536 55.23953073 -98.01252189 53.06942575 -95.53271484 50.75488281 C-94.87157684 50.10410767 -94.21043884 49.45333252 -93.52926636 48.78283691 C-91.42306212 46.72018148 -89.28741949 44.69126849 -87.14990234 42.66113281 C-85.719521 41.26734488 -84.29111173 39.87153004 -82.86474609 38.47363281 C-80.25666644 35.93209815 -77.64375174 33.3963521 -75.00585938 30.88574219 C-74.47735382 30.38216187 -73.94884827 29.87858154 -73.40432739 29.35974121 C-71.37375165 27.59533571 -70.08590963 27.16864558 -67.39208984 26.83691406 C-62.90333374 27.26912608 -59.96653255 29.05585531 -56.14990234 31.34863281 C-55.44244873 31.75774902 -54.73499512 32.16686523 -54.00610352 32.58837891 C-50.36607622 34.70735733 -46.82909998 36.92940382 -43.33740234 39.28613281 C-40.31648385 41.41483715 -40.31648385 41.41483715 -37.69287109 40.93457031 C-34.6792847 40.06093912 -31.89802211 38.9217874 -29.02490234 37.66113281 C-25.34861224 36.04806675 -21.99425796 34.80323446 -18.02490234 34.16113281 C-17.77095703 32.989375 -17.51701172 31.81761719 -17.25537109 30.61035156 C-16.2036356 25.78818541 -15.12108658 20.97337127 -14.02490234 16.16113281 C-13.76322266 15.00484375 -13.50154297 13.84855469 -13.23193359 12.65722656 C-12.99861328 11.70976562 -12.76529297 10.76230469 -12.52490234 9.78613281 C-12.32896484 8.97402344 -12.13302734 8.16191406 -11.93115234 7.32519531 C-10.77879797 4.57345254 -9.29005808 3.07975353 -7.02490234 1.16113281 C-4.34052382 0.26633997 -2.75623568 0.02663333 0 0 Z M4.97509766 18.16113281 C2.61223238 25.10464722 2.61223238 25.10464722 0.72900391 32.09082031 C0.53113281 32.90550781 0.33326172 33.72019531 0.12939453 34.55957031 C-0.27022957 36.23192463 -0.66063871 37.90650394 -1.04248047 39.58300781 C-2.52970907 45.60893084 -2.52970907 45.60893084 -4.75537109 48.09082031 C-7.73953178 49.49815255 -10.73900903 50.46219655 -13.89990234 51.41113281 C-20.68308456 53.51694907 -26.69476304 56.37569661 -32.90380859 59.80566406 C-36.36977356 61.31090792 -38.28448588 61.47965834 -42.02490234 61.16113281 C-44.66210938 59.93603516 -44.66210938 59.93603516 -47.28271484 58.24707031 C-48.23791016 57.65152344 -49.19310547 57.05597656 -50.17724609 56.44238281 C-52.16810395 55.16572232 -54.15767765 53.88705719 -56.14599609 52.60644531 C-57.09861328 52.01347656 -58.05123047 51.42050781 -59.03271484 50.80957031 C-59.89525879 50.25446777 -60.75780273 49.69936523 -61.64648438 49.12744141 C-63.9531969 47.90049805 -63.9531969 47.90049805 -66.12109375 48.79199219 C-68.09715372 50.21309302 -69.77261378 51.68195002 -71.47802734 53.41894531 C-72.09677734 54.04414063 -72.71552734 54.66933594 -73.35302734 55.31347656 C-73.98724609 55.96445312 -74.62146484 56.61542969 -75.27490234 57.28613281 C-75.92458984 57.94484375 -76.57427734 58.60355469 -77.24365234 59.28222656 C-78.84201962 60.90409924 -80.43552132 62.53046091 -82.02490234 64.16113281 C-81.16099567 65.6681462 -80.29707739 67.17515293 -79.43310547 68.68212891 C-78.69894844 69.96624938 -77.96719898 71.25174913 -77.23779297 72.53857422 C-75.65751646 75.32510974 -74.06873763 78.09043409 -72.38037109 80.81347656 C-70.02991753 84.66767851 -68.09863041 88.14579648 -68.40380859 92.82519531 C-69.42123114 96.65172792 -71.30329988 100.0367811 -73.17553711 103.51074219 C-76.1874282 109.16775437 -78.01701823 114.93375343 -79.78662109 121.07910156 C-81.17246037 124.52839869 -81.93160798 125.25156227 -85.02490234 127.16113281 C-87.86572266 128.14428711 -87.86572266 128.14428711 -91.10302734 128.98535156 C-92.26318359 129.29150391 -93.42333984 129.59765625 -94.61865234 129.91308594 C-96.42849609 130.37618164 -96.42849609 130.37618164 -98.27490234 130.84863281 C-99.49693359 131.16896484 -100.71896484 131.48929687 -101.97802734 131.81933594 C-104.99154529 132.60803009 -108.00795752 133.38565052 -111.02490234 134.16113281 C-111.02490234 142.08113281 -111.02490234 150.00113281 -111.02490234 158.16113281 C-109.19443359 158.63164062 -107.36396484 159.10214844 -105.47802734 159.58691406 C-103.07686105 160.2153443 -100.67582614 160.84427673 -98.27490234 161.47363281 C-97.06833984 161.78236328 -95.86177734 162.09109375 -94.61865234 162.40917969 C-93.45849609 162.71533203 -92.29833984 163.02148438 -91.10302734 163.33691406 C-90.0347168 163.61446533 -88.96640625 163.8920166 -87.86572266 164.17797852 C-85.02179975 165.16220656 -83.22006949 166.11971893 -81.02490234 168.16113281 C-79.78662109 171.24316406 -79.78662109 171.24316406 -78.71240234 174.97363281 C-76.66878885 181.76717729 -73.86251635 187.67487005 -70.38037109 193.84472656 C-68.47767878 198.50001698 -67.98189751 202.49782012 -69.81665039 207.18286133 C-70.88543913 209.25925725 -72.04613889 211.23796647 -73.27490234 213.22363281 C-73.67064453 213.89201172 -74.06638672 214.56039062 -74.47412109 215.24902344 C-75.22301011 216.51231327 -75.97885732 217.77153018 -76.74462891 219.0246582 C-78.55270395 222.0419093 -80.27972423 225.10707111 -82.02490234 228.16113281 C-76.74490234 233.44113281 -71.46490234 238.72113281 -66.02490234 244.16113281 C-62.4875728 242.746201 -59.75834772 241.50910767 -56.59130859 239.55957031 C-55.77726562 239.06972656 -54.96322266 238.57988281 -54.12451172 238.07519531 C-52.43248019 237.04877434 -50.74495101 236.01489456 -49.06201172 234.97363281 C-41.04373649 230.18168335 -41.04373649 230.18168335 -36.02490234 231.16113281 C-33.25781854 232.20743753 -30.65496724 233.49874915 -28.02490234 234.84863281 C-21.38575747 238.14789762 -14.89471353 240.72345172 -7.78271484 242.86035156 C-4.36156529 244.47400992 -3.73497049 245.83264914 -2.02490234 249.16113281 C-1.14941406 251.91601562 -1.14941406 251.91601562 -0.45458984 254.86425781 C-0.19806641 255.92644531 0.05845703 256.98863281 0.32275391 258.08300781 C0.57927734 259.18128906 0.83580078 260.27957031 1.10009766 261.41113281 C1.62052812 263.6045568 2.14380746 265.79730748 2.67041016 267.98925781 C2.89744629 268.95766602 3.12448242 269.92607422 3.35839844 270.92382812 C3.7642294 273.11485852 3.7642294 273.11485852 4.97509766 274.16113281 C6.68282123 274.24827113 8.39408415 274.26813289 10.10400391 274.25878906 C11.13847656 274.25556641 12.17294922 274.25234375 13.23876953 274.24902344 C14.32738281 274.24064453 15.41599609 274.23226563 16.53759766 274.22363281 C17.63007813 274.21912109 18.72255859 274.21460938 19.84814453 274.20996094 C22.55718261 274.19813108 25.26611365 274.18164825 27.97509766 274.16113281 C28.30123047 272.97777344 28.62736328 271.79441406 28.96337891 270.57519531 C29.86110564 267.32183914 30.76728609 264.07096949 31.67822266 260.82128906 C32.42177689 258.16718394 33.14300419 255.51316625 33.83447266 252.84472656 C34.18251953 251.54728516 34.18251953 251.54728516 34.53759766 250.22363281 C34.72451172 249.49273437 34.91142578 248.76183594 35.10400391 248.00878906 C36.90119889 244.1968015 39.83651341 243.21354232 43.66259766 241.76660156 C45.09843997 241.28893323 46.53603647 240.81651431 47.97509766 240.34863281 C54.44979828 238.17725197 60.39516777 235.63026835 66.36181641 232.26269531 C69.52314151 230.93011881 71.55852399 230.89023133 74.97509766 231.16113281 C77.61230469 232.38623047 77.61230469 232.38623047 80.23291016 234.07519531 C81.18810547 234.67074219 82.14330078 235.26628906 83.12744141 235.87988281 C85.11829926 237.1565433 87.10787296 238.43520843 89.09619141 239.71582031 C90.04880859 240.30878906 91.00142578 240.90175781 91.98291016 241.51269531 C92.8454541 242.06779785 93.70799805 242.62290039 94.59667969 243.19482422 C96.90339221 244.42176757 96.90339221 244.42176757 99.07128906 243.53027344 C101.04734903 242.10917261 102.72280909 240.64031561 104.42822266 238.90332031 C105.04697266 238.278125 105.66572266 237.65292969 106.30322266 237.00878906 C106.93744141 236.3578125 107.57166016 235.70683594 108.22509766 235.03613281 C108.87478516 234.37742187 109.52447266 233.71871094 110.19384766 233.04003906 C111.79221493 231.41816639 113.38571663 229.79180471 114.97509766 228.16113281 C114.11224003 226.63667964 113.24890004 225.11249773 112.38330078 223.58959961 C111.64943735 222.29798034 110.9176839 221.00516008 110.18798828 219.71118164 C108.25327707 216.30352976 106.23851066 213.0513296 103.97509766 209.84863281 C101.89711202 206.46834796 101.12917954 203.7335928 101.35400391 199.75488281 C102.30618401 195.77848289 104.1843503 192.34325592 106.12353516 188.76098633 C109.14719665 183.11970221 111.01381811 177.36543551 112.83447266 171.24316406 C113.97807752 168.15308105 114.45642562 167.13232633 116.97509766 165.16113281 C119.79418945 164.17797852 119.79418945 164.17797852 123.17431641 163.33691406 C124.98706055 162.87768555 124.98706055 162.87768555 126.83642578 162.40917969 C128.0990625 162.10044922 129.36169922 161.79171875 130.66259766 161.47363281 C131.93683594 161.15330078 133.21107422 160.83296875 134.52392578 160.50292969 C137.67198176 159.71296807 140.82325039 158.93582928 143.97509766 158.16113281 C143.97509766 150.24113281 143.97509766 142.32113281 143.97509766 134.16113281 C141.22939453 133.45537109 141.22939453 133.45537109 138.42822266 132.73535156 C136.02705636 132.10692132 133.62602145 131.47798889 131.22509766 130.84863281 C130.01853516 130.53990234 128.81197266 130.23117187 127.56884766 129.91308594 C126.40869141 129.60693359 125.24853516 129.30078125 124.05322266 128.98535156 C122.98491211 128.70780029 121.91660156 128.43024902 120.81591797 128.14428711 C117.97199507 127.16005906 116.1702648 126.2025467 113.97509766 124.16113281 C112.73681641 121.07910156 112.73681641 121.07910156 111.66259766 117.34863281 C109.62723151 110.57507947 106.83085376 104.7100273 103.33056641 98.57519531 C101.581396 94.16950386 100.99431586 90.82897043 101.97509766 86.16113281 C103.78072615 82.22262132 106.06831314 78.69379846 108.47509766 75.09863281 C109.09513672 74.13763672 109.71517578 73.17664063 110.35400391 72.18652344 C111.87663869 69.83229581 113.41681942 67.49185544 114.97509766 65.16113281 C111.34578193 60.83229447 107.62542982 56.6945686 103.60009766 52.72363281 C102.72611328 51.85867188 101.85212891 50.99371094 100.95166016 50.10253906 C100.29939453 49.461875 99.64712891 48.82121094 98.97509766 48.16113281 C95.60928236 49.42908959 92.60253895 50.87841099 89.54150391 52.76269531 C88.72746094 53.25253906 87.91341797 53.74238281 87.07470703 54.24707031 C85.38267551 55.27349128 83.69514633 56.30737107 82.01220703 57.34863281 C73.9939318 62.14058228 73.9939318 62.14058228 68.97509766 61.16113281 C66.20800536 60.11482488 63.60528532 58.82327903 60.97509766 57.47363281 C54.33708233 54.18145567 47.8186495 51.5672487 40.73291016 49.36425781 C37.57854729 47.9881335 36.77930382 47.03735874 34.97509766 44.16113281 C34.09960938 41.53564453 34.09960938 41.53564453 33.40478516 38.59082031 C33.02 36.99947266 33.02 36.99947266 32.62744141 35.37597656 C32.24265625 33.72275391 32.24265625 33.72275391 31.85009766 32.03613281 C31.32853765 29.84558077 30.80519038 27.65545326 30.27978516 25.46582031 C30.05274902 24.49628418 29.82571289 23.52674805 29.59179688 22.52783203 C29.06341929 20.16508462 29.06341929 20.16508462 27.97509766 18.16113281 C20.38509766 18.16113281 12.79509766 18.16113281 4.97509766 18.16113281 Z " fill="#000000" transform="translate(343.02490234375,220.8388671875)"/>
<path d="M0 0 C3.49220409 2.13901931 3.49220409 2.13901931 7.52905273 2.59106445 C9.30376661 1.21569565 9.30376661 1.21569565 11.03295898 -0.6550293 C11.69102539 -1.32727539 12.3490918 -1.99952148 13.02709961 -2.69213867 C13.70836914 -3.40305664 14.38963867 -4.11397461 15.09155273 -4.84643555 C16.44487809 -6.24304695 17.80025048 -7.63767857 19.15795898 -9.0300293 C19.75680908 -9.65321045 20.35565918 -10.2763916 20.97265625 -10.91845703 C23.65922782 -13.49124439 25.52838111 -13.53311929 29.13540649 -13.52919006 C30.59097206 -13.53125206 30.59097206 -13.53125206 32.07594299 -13.53335571 C33.67815956 -13.5279628 33.67815956 -13.5279628 35.31274414 -13.52246094 C36.99567314 -13.52267998 36.99567314 -13.52267998 38.71260071 -13.52290344 C42.43529163 -13.52220463 46.15793302 -13.5144137 49.88061523 -13.5065918 C52.45608493 -13.5047275 55.03155497 -13.50330365 57.60702515 -13.50230408 C63.70205595 -13.49887104 69.7970662 -13.49098293 75.89208925 -13.48095459 C82.83033245 -13.46978611 89.7685765 -13.46428114 96.70682645 -13.45925915 C110.98091176 -13.44880013 125.25498097 -13.43100437 139.52905273 -13.40893555 C139.52905273 -7.46893555 139.52905273 -1.52893555 139.52905273 4.59106445 C137.53281357 4.57654739 137.53281357 4.57654739 135.49624634 4.56173706 C122.93159324 4.47691055 110.36775741 4.44489722 97.80282021 4.46409416 C91.34344838 4.47227894 84.88521036 4.46209968 78.42602539 4.40942383 C72.18797624 4.35923577 65.95163107 4.35797709 59.7134819 4.39011002 C57.33812151 4.39385049 54.96266571 4.38019821 52.58751297 4.34856796 C39.57939958 3.57063445 39.57939958 3.57063445 27.78607178 7.89727783 C25.31924671 10.34104392 23.34714905 12.64181262 21.52905273 15.59106445 C23.0981768 18.84902777 24.92747393 21.48465658 27.15405273 24.34106445 C39.07786692 40.60081107 48.29294543 63.11448309 45.52905273 83.59106445 C43.19135395 88.25991385 43.19135395 88.25991385 40.52905273 89.59106445 C37.64277306 89.72100853 34.77955663 89.79052268 31.8918457 89.81567383 C30.55006004 89.83275894 30.55006004 89.83275894 29.1811676 89.85018921 C19.81579431 89.9608928 10.44963007 90.00828264 1.08374023 90.05102539 C-3.35903603 90.07329087 -7.80097102 90.11504362 -12.2434082 90.17407227 C-17.60801324 90.24521579 -22.97182716 90.28186611 -28.33687973 90.29414368 C-30.37902319 90.30453602 -32.42114313 90.32694061 -34.46301651 90.36174011 C-52.46297241 90.65260464 -52.46297241 90.65260464 -56.9609375 86.8527832 C-58.15721754 85.45426646 -59.32369276 84.0300718 -60.47094727 82.59106445 C-61.94396805 81.14458515 -63.41878487 79.6997048 -64.91464329 78.27685547 C-67.8778983 75.45330246 -70.77630139 72.5635707 -73.68579102 69.68481445 C-74.30606234 69.07111496 -74.92633366 68.45741547 -75.56540108 67.82511902 C-78.83787819 64.58500972 -82.10642537 61.34098549 -85.37255859 58.09448242 C-88.06766374 55.41727816 -90.77105711 52.74887828 -93.48193359 50.08764648 C-96.77236355 46.85736794 -100.04786314 43.61264189 -103.31320381 40.35700989 C-104.5548386 39.1239231 -105.80159382 37.8959695 -107.0535717 36.67338562 C-108.80075376 34.96509449 -110.52807193 33.23883878 -112.25195312 31.50708008 C-112.76878159 31.01025223 -113.28561005 30.51342438 -113.81809998 30.00154114 C-117.3486444 26.39809383 -118.31732537 23.60290045 -118.47094727 18.59106445 C-112.62668443 5.19632783 -94.57348119 -2.96978651 -81.89672852 -8.15893555 C-54.96791921 -17.98472685 -24.38554496 -14.99185248 0 0 Z M-95.47094727 21.59106445 C-89.01387462 30.26108256 -82.18745996 38.54514154 -74.97094727 46.59106445 C-74.43871803 47.18492699 -73.9064888 47.77878952 -73.35813141 48.39064789 C-59.69016849 63.44644956 -46.9915109 73.71373582 -26.11938477 74.91137695 C-19.51080084 75.20733401 -12.9493703 75.06397926 -6.34594727 74.71606445 C-5.11870438 74.6518631 -5.11870438 74.6518631 -3.8666687 74.58636475 C6.3220918 74.01374329 16.42220795 73.00975184 26.52905273 71.59106445 C26.38556479 70.16403333 26.23774605 68.7374373 26.08813477 67.31103516 C26.00628937 66.51655472 25.92444397 65.72207428 25.84011841 64.90351868 C24.07282841 51.76553029 16.4258249 39.13881995 7.52905273 29.59106445 C1.90601517 34.26572782 -3.26836281 39.26872113 -8.40844727 44.46606445 C-9.18768555 45.24981445 -9.96692383 46.03356445 -10.76977539 46.84106445 C-12.67248811 48.75545026 -14.57280897 50.67214479 -16.47094727 52.59106445 C-17.57754136 51.65228519 -18.68273525 50.71185529 -19.78735352 49.77075195 C-20.40296143 49.24723145 -21.01856934 48.72371094 -21.65283203 48.18432617 C-24.04331312 46.08948535 -26.2577389 43.87133974 -28.47094727 41.59106445 C-26.96206234 38.02580517 -24.8847087 35.79814248 -22.11938477 33.11450195 C-21.26860352 32.27918945 -20.41782227 31.44387695 -19.54125977 30.58325195 C-18.20708008 29.28774414 -18.20708008 29.28774414 -16.84594727 27.96606445 C-15.07842486 26.24933292 -13.31515592 24.52820738 -11.55688477 22.80200195 C-10.38198486 21.66190674 -10.38198486 21.66190674 -9.18334961 20.4987793 C-7.24828544 18.77026173 -7.24828544 18.77026173 -7.47094727 16.59106445 C-34.64631741 2.23619516 -71.80011263 -2.91577597 -95.47094727 21.59106445 Z " fill="#000000" transform="translate(203.470947265625,132.408935546875)"/>
<path d="M0 0 C0.58910156 0.52851563 1.17820312 1.05703125 1.78515625 1.6015625 C2.50832031 2.23320312 3.23148437 2.86484375 3.9765625 3.515625 C15.486928 14.22747106 23.99262276 29.82282427 24.90795898 45.73657227 C25.58703305 65.76409709 22.25181857 84.10182137 8.22265625 99.2265625 C6.44371757 101.05858145 4.62626988 102.83029385 2.78515625 104.6015625 C2.21410156 105.19195312 1.64304687 105.78234375 1.0546875 106.390625 C-7.09135327 114.22255108 -19.23024061 119.5363859 -30.21484375 121.6015625 C-30.89675781 121.73046875 -31.57867187 121.859375 -32.28125 121.9921875 C-34.264201 122.29664058 -36.21266131 122.4764261 -38.21484375 122.6015625 C-39.39046875 122.68083984 -39.39046875 122.68083984 -40.58984375 122.76171875 C-59.71663189 123.41635584 -75.19129545 116.32452891 -90.40234375 105.2890625 C-103.94684847 92.34653577 -112.01722617 75.38450863 -112.61303711 56.68383789 C-112.87651756 37.2795668 -107.53717555 21.0892819 -94.72265625 6.16796875 C-69.5241011 -19.61933769 -28.14382093 -23.13360225 0 0 Z M-82.37890625 20.07421875 C-92.09682462 32.7220713 -95.58628816 45.8243464 -94.21484375 61.6015625 C-91.49556686 75.86611211 -83.8480627 87.78497677 -71.95703125 96.19921875 C-69.75343634 97.49057275 -67.55255522 98.57391081 -65.21484375 99.6015625 C-63.96960938 100.17003906 -63.96960938 100.17003906 -62.69921875 100.75 C-49.52696608 106.18066558 -35.88224671 105.59005675 -22.796875 100.19140625 C-9.80948254 93.75099944 -0.18502008 83.54495062 4.59765625 69.7890625 C8.51447803 57.13654122 7.91689101 43.59956264 2.37890625 31.5390625 C-5.73516625 16.53568317 -17.28562449 8.58723363 -33.21484375 3.6015625 C-50.90060734 -0.64302076 -70.53954176 6.54656943 -82.37890625 20.07421875 Z " fill="#000000" transform="translate(403.21484375,313.3984375)"/>
<path d="M0 0 C5.94 0 11.88 0 18 0 C18 56.43 18 112.86 18 171 C12.06 171 6.12 171 0 171 C0 114.57 0 58.14 0 0 Z " fill="#000000" transform="translate(9,128)"/>
<path d="M0 0 C45.21 0 90.42 0 137 0 C137 5.94 137 11.88 137 18 C91.79 18 46.58 18 0 18 C0 12.06 0 6.12 0 0 Z " fill="#000000" transform="translate(86,281)"/>
<path d="M0 0 C5.94 0 11.88 0 18 0 C18 45.21 18 90.42 18 137 C12.06 137 6.12 137 0 137 C0 91.79 0 46.58 0 0 Z " fill="#000000" transform="translate(402,102)"/>
<path d="M0 0 C36.96 0 73.92 0 112 0 C112 5.94 112 11.88 112 18 C75.04 18 38.08 18 0 18 C0 12.06 0 6.12 0 0 Z " fill="#000000" transform="translate(86,315)"/>
<path d="M0 0 C33.99 0 67.98 0 103 0 C103 5.94 103 11.88 103 18 C69.01 18 35.02 18 0 18 C0 12.06 0 6.12 0 0 Z " fill="#000000" transform="translate(274,187)"/>
<path d="M0 0 C28.38 0 56.76 0 86 0 C86 5.94 86 11.88 86 18 C57.62 18 29.24 18 0 18 C0 12.06 0 6.12 0 0 Z " fill="#000000" transform="translate(137,247)"/>
<path d="M0 0 C22.77 0 45.54 0 69 0 C69 5.94 69 11.88 69 18 C46.23 18 23.46 18 0 18 C0 12.06 0 6.12 0 0 Z " fill="#000000" transform="translate(308,153)"/>
<path d="M0 0 C5.94 0 11.88 0 18 0 C18 5.94 18 11.88 18 18 C12.06 18 6.12 18 0 18 C0 12.06 0 6.12 0 0 Z " fill="#000000" transform="translate(103,247)"/>
<path d="M0 0 C5.94 0 11.88 0 18 0 C18 5.94 18 11.88 18 18 C12.06 18 6.12 18 0 18 C0 12.06 0 6.12 0 0 Z " fill="#000000" transform="translate(274,153)"/>
<path d="M0 0 C5.94 0 11.88 0 18 0 C18 5.94 18 11.88 18 18 C12.06 18 6.12 18 0 18 C0 12.06 0 6.12 0 0 Z " fill="#000000" transform="translate(359,119)"/>
</svg>
